<?xml version="1.0" standalone="no"?>
<!DOCTYPE svg PUBLIC "-//W3C//DTD SVG 20010904//EN"
 "http://www.w3.org/TR/2001/REC-SVG-20010904/DTD/svg10.dtd">
<svg version="1.0" xmlns="http://www.w3.org/2000/svg"
 width="1200.000000pt" height="1200.000000pt" viewBox="0 0 1200.000000 1200.000000"
 preserveAspectRatio="xMidYMid meet">
<metadata>
Created by potrace 1.16, written by Peter Selinger 2001-2019
</metadata>
<g transform="translate(0.000000,1200.000000) scale(0.100000,-0.100000)"
fill="#000000" stroke="none">
<path d="M4185 11660 c-178 -29 -366 -128 -486 -258 -158 -170 -230 -351 -232
-582 -2 -185 32 -308 130 -470 40 -65 329 -359 2182 -2213 l2136 -2137 -2136
-2138 c-2260 -2262 -2193 -2191 -2260 -2352 -48 -114 -63 -192 -62 -335 0
-101 5 -148 22 -210 25 -95 74 -202 129 -282 40 -58 151 -171 208 -211 57 -40
192 -101 270 -124 110 -32 321 -31 439 1 102 27 224 86 300 144 98 75 4976
4963 5019 5029 53 82 92 171 117 263 31 114 31 317 0 430 -27 100 -78 210
-136 289 -55 77 -4953 4972 -5018 5016 -68 45 -200 105 -277 124 -78 20 -262
28 -345 16z"/>
</g>
</svg>
